<svg width="1200" height="800" viewBox="0 0 1200 800" fill="none" xmlns="http://www.w3.org/2000/svg">
<path d="M212.952 377.052V368.63C210.029 368.167 207.076 367.913 204.116 367.87C175.462 367.81 150.094 386.378 141.489 413.71C132.885 441.042 143.041 470.794 166.563 487.159C148.943 468.303 144.051 440.853 154.071 417.07C164.091 393.288 187.152 377.615 212.952 377.052Z" fill="#25F4EE"/>
<path d="M214.54 472.456C230.561 472.434 243.73 459.812 244.432 443.807V300.978H270.526C269.994 297.994 269.739 294.966 269.767 291.935H234.077V434.626C233.483 450.713 220.283 463.455 204.186 463.481C199.375 463.441 194.643 462.258 190.379 460.03C193.142 463.858 196.771 466.98 200.97 469.139C205.169 471.298 209.819 472.435 214.54 472.456ZM319.264 349.439V341.5C309.66 341.503 300.27 338.67 292.272 333.354C299.283 341.505 308.758 347.151 319.264 349.439Z" fill="#25F4EE"/>
<path d="M292.273 333.355C284.394 324.383 280.051 312.849 280.054 300.909H270.528C271.758 307.511 274.321 313.793 278.059 319.371C281.798 324.949 286.634 329.707 292.273 333.355ZM204.118 403.561C190.37 403.632 178.434 413.05 175.169 426.405C171.903 439.761 178.147 453.624 190.311 460.03C183.72 450.93 182.789 438.902 187.901 428.896C193.014 418.89 203.305 412.596 214.542 412.604C217.538 412.642 220.514 413.107 223.378 413.985V377.674C220.453 377.235 217.5 377.005 214.542 376.983H212.954V404.596C210.074 403.824 207.098 403.476 204.118 403.561Z" fill="#FE2C55"/>
<path d="M319.263 349.439V377.052C301.485 377.018 284.169 371.391 269.767 360.968V433.521C269.691 469.725 240.32 499.034 204.117 499.034C190.671 499.058 177.55 494.909 166.562 487.16C184.899 506.881 213.436 513.373 238.5 503.525C263.563 493.676 280.047 469.494 280.052 442.565V370.218C294.503 380.573 311.841 386.127 329.618 386.096V350.544C326.138 350.533 322.668 350.163 319.263 349.439Z" fill="#FE2C55"/>
<path d="M269.766 433.522V360.968C284.212 371.331 301.553 376.886 319.332 376.846V349.232C308.828 347.014 299.331 341.442 292.271 333.355C286.632 329.707 281.796 324.949 278.057 319.371C274.319 313.793 271.756 307.511 270.526 300.909H244.431V443.807C243.909 456.556 235.37 467.575 223.155 471.263C210.94 474.951 197.73 470.498 190.24 460.168C178.076 453.762 171.832 439.898 175.098 426.544C178.363 413.188 190.299 403.77 204.047 403.699C207.044 403.726 210.021 404.191 212.883 405.08V377.467C186.938 377.906 163.702 393.634 153.654 417.559C143.606 441.483 148.642 469.085 166.493 487.919C177.589 495.413 190.729 499.295 204.116 499.034C240.32 499.034 269.69 469.725 269.766 433.522Z" fill="black"/>
<path d="M442.76 499.119H405.029V376.473H367.369L367.297 342.854H483.594L472.917 376.473H442.76V499.119ZM749.592 499.119H711.933V376.473H674.129L674.057 342.854H793.023L782.346 376.473H749.592V499.119ZM490.665 392.562H527.963V499.119H490.953L490.665 392.562ZM591.018 447.247L579.98 457.925V499.119H542.753V342.421H579.98V415.215L616.918 379.143H661.359L614.681 424.45L666.986 499.119H625.936L591.018 447.247ZM985.65 447.247L974.973 457.925V499.119H937.674L937.313 342.421H974.973V415.215L1011.84 379.143H1056.28L1009.6 424.45L1061.55 499.119H1020.5L985.65 447.247Z" fill="white"/>
<path d="M509.351 380.369C519.711 380.369 528.109 371.971 528.109 361.611C528.109 351.252 519.711 342.854 509.351 342.854C498.992 342.854 490.594 351.252 490.594 361.611C490.594 371.971 498.992 380.369 509.351 380.369Z" fill="black"/>
<path d="M788.261 435.344C788.272 402.06 813.877 374.382 847.059 371.784H841.504C807.781 373.751 781.441 401.672 781.441 435.452C781.441 469.232 807.781 497.153 841.504 499.12H847.059C813.794 496.515 788.159 468.71 788.261 435.344Z" fill="#25F4EE"/>
<path d="M861.561 371.568H855.934C889.008 374.299 914.46 401.94 914.46 435.127C914.46 468.314 889.008 495.955 855.934 498.687H861.561C896.783 498.687 925.337 470.133 925.337 434.911C925.337 399.688 896.783 371.135 861.561 371.135V371.568Z" fill="#FE2C55"/>
<path d="M851.46 466.366C834.327 466.366 820.437 452.476 820.437 435.343C820.437 418.21 834.327 404.321 851.46 404.321C868.593 404.321 882.482 418.21 882.482 435.343C882.442 452.46 868.576 466.326 851.46 466.366ZM851.46 371.567C816.237 371.567 787.684 400.121 787.684 435.343C787.684 470.566 816.237 499.119 851.46 499.119C886.682 499.119 915.236 470.566 915.236 435.343C915.236 418.429 908.516 402.207 896.556 390.247C884.596 378.287 868.374 371.567 851.46 371.567Z" fill="white"/>
</svg>
