<svg width="1200" height="800" viewBox="0 0 1200 800" fill="none" xmlns="http://www.w3.org/2000/svg">
<path d="M426.529 329.255C423.137 316.657 413.204 306.723 400.605 303.331C377.589 297.032 285.523 297.032 285.523 297.032C285.523 297.032 193.458 297.032 170.442 303.089C158.085 306.481 147.91 316.657 144.518 329.255C138.461 352.271 138.461 400 138.461 400C138.461 400 138.461 447.971 144.518 470.745C147.91 483.344 157.843 493.277 170.442 496.669C193.7 502.968 285.523 502.968 285.523 502.968C285.523 502.968 377.589 502.968 400.605 496.911C413.204 493.519 423.137 483.586 426.529 470.987C432.586 447.971 432.586 400.242 432.586 400.242C432.586 400.242 432.828 352.271 426.529 329.255Z" fill="#FF0000"/>
<path d="M256.207 355.905V444.094L332.767 400L256.207 355.905Z" fill="white"/>
<path d="M565.596 484.555C559.781 480.679 555.662 474.622 553.24 466.142C550.817 457.905 549.605 446.76 549.605 433.192V414.537C549.605 400.727 551.059 389.582 553.724 381.103C556.632 372.623 560.993 366.566 566.807 362.69C572.864 358.813 580.617 356.875 590.308 356.875C599.757 356.875 607.51 358.813 613.324 362.69C619.139 366.566 623.258 372.865 625.923 381.103C628.588 389.34 630.042 400.485 630.042 414.537V433.192C630.042 447.002 628.83 457.905 626.165 466.384C623.5 474.622 619.381 480.921 613.567 484.797C607.752 488.674 599.757 490.612 589.824 490.612C579.648 490.37 571.41 488.432 565.596 484.555ZM598.303 464.204C599.999 460.085 600.726 453.059 600.726 443.61V403.392C600.726 394.186 599.999 387.402 598.303 383.041C596.607 378.68 593.942 376.742 589.824 376.742C585.947 376.742 583.04 378.922 581.586 383.041C579.89 387.402 579.163 394.186 579.163 403.392V443.61C579.163 453.059 579.89 460.085 581.586 464.204C583.04 468.323 585.947 470.503 590.066 470.503C593.942 470.503 596.607 468.565 598.303 464.204Z" fill="#010101"/>
<path d="M1012.84 433.435V439.976C1012.84 448.214 1013.08 454.513 1013.57 458.632C1014.05 462.75 1015.02 465.9 1016.72 467.596C1018.17 469.534 1020.6 470.503 1023.99 470.503C1028.35 470.503 1031.26 468.807 1032.95 465.415C1034.65 462.024 1035.37 456.451 1035.62 448.456L1060.57 449.91C1060.81 451.121 1060.81 452.575 1060.81 454.513C1060.81 466.385 1057.66 475.349 1051.12 481.163C1044.58 486.978 1035.37 489.885 1023.5 489.885C1009.21 489.885 999.275 485.282 993.46 476.318C987.646 467.354 984.738 453.544 984.738 434.646V412.114C984.738 392.732 987.646 378.68 993.703 369.716C999.76 360.752 1009.94 356.391 1024.23 356.391C1034.16 356.391 1041.92 358.329 1047.25 361.963C1052.58 365.597 1056.21 371.412 1058.39 378.922C1060.57 386.675 1061.54 397.336 1061.54 410.903V432.95H1012.84V433.435ZM1016.48 379.165C1015.02 381.103 1014.05 384.01 1013.57 388.129C1013.08 392.248 1012.84 398.547 1012.84 407.027V416.233H1034.16V407.027C1034.16 398.789 1033.92 392.49 1033.44 388.129C1032.95 383.768 1031.74 380.861 1030.29 379.165C1028.83 377.469 1026.41 376.5 1023.5 376.5C1020.11 376.257 1017.93 377.226 1016.48 379.165Z" fill="#010101"/>
<path d="M494.852 431.011L461.902 311.568H490.733L502.363 365.596C505.27 378.921 507.45 390.309 508.904 399.757H509.631C510.6 392.974 512.781 381.829 516.172 365.838L528.286 311.568H557.117L523.683 431.011V488.189H495.094V431.011H494.852Z" fill="#010101"/>
<path d="M723.803 359.298V488.432H701.029L698.606 472.684H697.879C691.822 484.555 682.373 490.612 670.017 490.612C661.537 490.612 655.238 487.705 651.119 482.132C647.001 476.56 645.062 467.838 645.062 455.724V359.298H674.136V454.028C674.136 459.843 674.863 463.962 676.074 466.384C677.285 468.807 679.466 470.019 682.373 470.019C684.796 470.019 687.219 469.292 689.642 467.596C692.064 466.142 693.76 464.204 694.729 461.781V359.298H723.803Z" fill="#010101"/>
<path d="M872.807 359.298V488.432H850.033L847.61 472.684H846.883C840.826 484.555 831.377 490.612 819.021 490.612C810.541 490.612 804.242 487.705 800.123 482.132C796.005 476.56 794.066 467.838 794.066 455.724V359.298H823.14V454.028C823.14 459.843 823.866 463.962 825.078 466.384C826.289 468.807 828.47 470.019 831.377 470.019C833.8 470.019 836.223 469.292 838.645 467.596C841.068 466.142 842.764 464.204 843.733 461.781V359.298H872.807Z" fill="#010101"/>
<path d="M802.786 335.069H773.955V488.189H745.608V335.069H716.777V311.568H802.786V335.069Z" fill="#010101"/>
<path d="M968.99 379.891C967.294 371.654 964.387 365.839 960.51 362.205C956.634 358.571 951.062 356.632 944.278 356.632C938.948 356.632 933.86 358.086 929.257 361.236C924.653 364.143 921.019 368.262 918.596 373.107H918.354V305.027H890.25V488.189H914.236L917.143 476.075H917.87C920.05 480.436 923.442 483.828 928.045 486.493C932.649 488.916 937.494 490.37 943.067 490.37C953 490.37 960.026 485.766 964.629 476.802C969.232 467.838 971.655 453.543 971.655 434.403V414.052C971.413 399.273 970.686 387.886 968.99 379.891ZM942.34 432.465C942.34 441.914 941.855 449.182 941.128 454.513C940.401 459.843 938.948 463.719 937.252 465.9C935.314 468.08 932.891 469.291 929.984 469.291C927.561 469.291 925.38 468.807 923.442 467.595C921.504 466.384 919.808 464.688 918.596 462.508V389.34C919.566 385.948 921.262 383.041 923.684 380.618C926.107 378.437 928.772 377.226 931.437 377.226C934.344 377.226 936.767 378.437 938.221 380.618C939.917 383.041 940.886 386.917 941.613 392.247C942.34 397.82 942.582 405.572 942.582 415.506V432.465H942.34Z" fill="#010101"/>
</svg>
