<?xml version="1.0" encoding="UTF-8" standalone="no"?>
<!-- Created with Inkscape (http://www.inkscape.org/) -->

<svg
   version="1.1"
   id="svg933"
   xml:space="preserve"
   width="682.66669"
   height="682.66669"
   viewBox="0 0 682.66669 682.66669"
   xmlns="http://www.w3.org/2000/svg"
   xmlns:svg="http://www.w3.org/2000/svg"><defs
     id="defs937"><clipPath
       clipPathUnits="userSpaceOnUse"
       id="clipPath947"><path
         d="M 0,512 H 512 V 0 H 0 Z"
         id="path945" /></clipPath></defs><g
     id="g939"
     transform="matrix(1.3333333,0,0,-1.3333333,0,682.66667)"><g
       id="g941"><g
         id="g943"
         clip-path="url(#clipPath947)"><g
           id="g949"
           transform="translate(359.501,255.7625)"><path
             d="m 0,0 c 10.485,-17.822 16.499,-38.59 16.499,-60.762 0,-66.275 -53.726,-120 -120,-120 -66.274,0 -120,53.725 -120,120 0,22.172 6.014,42.94 16.499,60.762"
             style="fill:none;stroke:#000000;stroke-width:30;stroke-linecap:butt;stroke-linejoin:miter;stroke-miterlimit:10;stroke-dasharray:none;stroke-opacity:1"
             id="path951" /></g><g
           id="g953"
           transform="translate(225.4941,311.0881)"><path
             d="M 0,0 C 9.741,2.553 19.965,3.912 30.506,3.912 41.047,3.912 51.271,2.553 61.012,0"
             style="fill:none;stroke:#000000;stroke-width:30;stroke-linecap:butt;stroke-linejoin:miter;stroke-miterlimit:10;stroke-dasharray:none;stroke-opacity:1"
             id="path955" /></g><g
           id="g957"
           transform="translate(166,15)"><path
             d="M 0,0 30,90"
             style="fill:none;stroke:#000000;stroke-width:30;stroke-linecap:butt;stroke-linejoin:miter;stroke-miterlimit:10;stroke-dasharray:none;stroke-opacity:1"
             id="path959" /></g><g
           id="g961"
           transform="translate(314.0498,90)"><path
             d="M 0,0 31.95,-75"
             style="fill:none;stroke:#000000;stroke-width:30;stroke-linecap:butt;stroke-linejoin:miter;stroke-miterlimit:10;stroke-dasharray:none;stroke-opacity:1"
             id="path963" /></g><g
           id="g965"
           transform="translate(226,285)"><path
             d="m 0,0 c 0,-16.569 -26.863,-30 -60,-30 -33.137,0 -60,13.431 -60,30 0,16.569 26.863,30 60,30 C -26.863,30 0,16.569 0,0 Z"
             style="fill:none;stroke:#000000;stroke-width:30;stroke-linecap:butt;stroke-linejoin:miter;stroke-miterlimit:10;stroke-dasharray:none;stroke-opacity:1"
             id="path967" /></g><g
           id="g969"
           transform="translate(152.0537,135)"><path
             d="m 0,0 h -137.054 v 150 h 91 v 60 c 0,16.569 26.864,30 60,30 33.137,0 60,-13.431 60,-30 v -60"
             style="fill:none;stroke:#000000;stroke-width:30;stroke-linecap:butt;stroke-linejoin:miter;stroke-miterlimit:10;stroke-dasharray:none;stroke-opacity:1"
             id="path971" /></g><g
           id="g973"
           transform="translate(406,285)"><path
             d="m 0,0 c 0,-16.569 -26.863,-30 -60,-30 -33.137,0 -60,13.431 -60,30 0,16.569 26.863,30 60,30 C -26.863,30 0,16.569 0,0 Z"
             style="fill:none;stroke:#000000;stroke-width:30;stroke-linecap:butt;stroke-linejoin:miter;stroke-miterlimit:10;stroke-dasharray:none;stroke-opacity:1"
             id="path975" /></g><g
           id="g977"
           transform="translate(286,285)"><path
             d="m 0,0 v 60 c 0,16.569 26.863,30 60,30 33.137,0 60,-13.431 60,-30 V 0 h 91 V -120 H 86.22"
             style="fill:none;stroke:#000000;stroke-width:30;stroke-linecap:butt;stroke-linejoin:miter;stroke-miterlimit:10;stroke-dasharray:none;stroke-opacity:1"
             id="path979" /></g><g
           id="g981"
           transform="translate(286,165)"><path
             d="m 0,0 c 0,-16.569 -13.432,-30 -30,-30 -16.568,0 -30,13.431 -30,30 0,16.569 13.432,30 30,30 C -13.432,30 0,16.569 0,0 Z"
             style="fill:none;stroke:#000000;stroke-width:30;stroke-linecap:butt;stroke-linejoin:miter;stroke-miterlimit:10;stroke-dasharray:none;stroke-opacity:1"
             id="path983" /></g><g
           id="g985"
           transform="translate(106,135)"><path
             d="M 0,0 V -120"
             style="fill:none;stroke:#000000;stroke-width:30;stroke-linecap:butt;stroke-linejoin:miter;stroke-miterlimit:10;stroke-dasharray:none;stroke-opacity:1"
             id="path987" /></g><g
           id="g989"
           transform="translate(61,15)"><path
             d="M 0,0 H 150"
             style="fill:none;stroke:#000000;stroke-width:30;stroke-linecap:butt;stroke-linejoin:miter;stroke-miterlimit:10;stroke-dasharray:none;stroke-opacity:1"
             id="path991" /></g><g
           id="g993"
           transform="translate(436,165)"><path
             d="M 0,0 V -150"
             style="fill:none;stroke:#000000;stroke-width:30;stroke-linecap:butt;stroke-linejoin:miter;stroke-miterlimit:10;stroke-dasharray:none;stroke-opacity:1"
             id="path995" /></g><g
           id="g997"
           transform="translate(301,15)"><path
             d="M 0,0 H 180"
             style="fill:none;stroke:#000000;stroke-width:30;stroke-linecap:butt;stroke-linejoin:miter;stroke-miterlimit:10;stroke-dasharray:none;stroke-opacity:1"
             id="path999" /></g><g
           id="g1001"
           transform="translate(166,375)"><path
             d="M 0,0 V 62"
             style="fill:none;stroke:#000000;stroke-width:30;stroke-linecap:butt;stroke-linejoin:miter;stroke-miterlimit:10;stroke-dasharray:none;stroke-opacity:1"
             id="path1003" /></g><g
           id="g1005"
           transform="translate(256,437)"><path
             d="m 0,0 h -180 c 0,33.137 26.863,60 60,60 h 60 C -26.863,60 0,33.137 0,0 Z"
             style="fill:none;stroke:#000000;stroke-width:30;stroke-linecap:butt;stroke-linejoin:miter;stroke-miterlimit:10;stroke-dasharray:none;stroke-opacity:1"
             id="path1007" /></g><g
           id="g1009"
           transform="translate(398.7998,495.3838)"><path
             d="M 0,0 67.2,-102.185 V -210.384"
             style="fill:none;stroke:#000000;stroke-width:30;stroke-linecap:butt;stroke-linejoin:miter;stroke-miterlimit:10;stroke-dasharray:none;stroke-opacity:1"
             id="path1011" /></g><g
           id="g1013"
           transform="translate(360.8623,416.5757)"><path
             d="M 0,0 125.327,82.42"
             style="fill:none;stroke:#000000;stroke-width:30;stroke-linecap:butt;stroke-linejoin:miter;stroke-miterlimit:10;stroke-dasharray:none;stroke-opacity:1"
             id="path1015" /></g><g
           id="g1017"
           transform="translate(15,225)"><path
             d="M 0,0 H 124.78"
             style="fill:none;stroke:#000000;stroke-width:30;stroke-linecap:butt;stroke-linejoin:miter;stroke-miterlimit:10;stroke-dasharray:none;stroke-opacity:1"
             id="path1019" /></g></g></g></g></svg>
