<svg version="1.1" id="Capa_1" xmlns="http://www.w3.org/2000/svg" xmlns:xlink="http://www.w3.org/1999/xlink" x="0px" y="0px" viewBox="0 0 512 512" style="enable-background:new 0 0 512 512;" xml:space="preserve">
<g>
	<g>
		<path style="fill:none;stroke:#000000;stroke-width:30;stroke-miterlimit:10;" d="M194.709,76.352v59.876&#10;&#9;&#9;&#9;c0,33.829,27.058,61.869,60.886,62.12c34.097,0.253,61.817-27.311,61.817-61.35V76.352c0-33.883-27.468-61.352-61.352-61.352h0&#10;&#9;&#9;&#9;C222.177,15,194.709,42.468,194.709,76.352z"/>
		<line style="fill:none;stroke:#000000;stroke-width:30;stroke-miterlimit:10;" x1="194.709" y1="80" x2="317.412" y2="80"/>
	</g>
	<path style="fill:none;stroke:#000000;stroke-width:30;stroke-miterlimit:10;" d="M225.561,228.857c-49.706,0-90,40.294-90,90"/>
	<path style="fill:none;stroke:#000000;stroke-width:30;stroke-miterlimit:10;" d="M286.561,228.857c49.706,0,90,40.294,90,90"/>
	<polyline style="fill:none;stroke:#000000;stroke-width:30;stroke-miterlimit:10;" points="224.079,190.795 224.079,232.667 &#10;&#9;&#9;256.061,264.649 288.043,232.667 288.043,190.795 &#9;"/>
	<rect x="15" y="317" style="fill:none;stroke:#000000;stroke-width:30;stroke-miterlimit:10;" width="482" height="180"/>
	<circle style="fill:none;stroke:#000000;stroke-width:30;stroke-miterlimit:10;" cx="166.061" cy="407" r="90"/>
	<circle style="fill:none;stroke:#000000;stroke-width:30;stroke-miterlimit:10;" cx="166.061" cy="407" r="30"/>
	<circle style="fill:none;stroke:#000000;stroke-width:30;stroke-miterlimit:10;" cx="346.06" cy="407" r="90"/>
	<circle style="fill:none;stroke:#000000;stroke-width:30;stroke-miterlimit:10;" cx="346.06" cy="407" r="30"/>
	<path style="fill:none;stroke:#000000;stroke-width:30;stroke-miterlimit:10;" d="M317.412,150V80h30c16.569,0,30,13.431,30,30v10&#10;&#9;&#9;c0,16.569-13.431,30-30,30H317.412z"/>
	<path style="fill:none;stroke:#000000;stroke-width:30;stroke-miterlimit:10;" d="M194.709,80v70h-30c-16.569,0-30-13.431-30-30&#10;&#9;&#9;v-10c0-16.569,13.431-30,30-30H194.709z"/>
</g>
<g>
</g>
<g>
</g>
<g>
</g>
<g>
</g>
<g>
</g>
<g>
</g>
<g>
</g>
<g>
</g>
<g>
</g>
<g>
</g>
<g>
</g>
<g>
</g>
<g>
</g>
<g>
</g>
<g>
</g>
</svg>