<svg id="Capa_1" enable-background="new 0 0 508.7 508.7" height="512" viewBox="0 0 508.7 508.7" width="512" xmlns="http://www.w3.org/2000/svg"><g id="XMLID_898_"><path id="XMLID_899_" d="m119.5 314.361h30v119.677h-30z" transform="matrix(.707 -.707 .707 .707 -225.205 204.708)"/><path id="XMLID_1151_" d="m496.388 12.313c-16.417-16.416-43.129-16.417-59.544 0l-157.318 157.317c-41.296-19.075-88.23-13.053-117.426 16.144-3.901 3.901-7.465 8.169-10.594 12.686-7.1 10.248-18.558 16.964-31.437 18.428-31.127 3.539-59.031 16.86-80.693 38.523-55.121 55.122-51.985 147.947 6.99 206.923 30.798 30.799 70.819 46.369 109.89 46.366 35.746-.002 70.698-13.039 97.034-39.375 21.663-21.664 34.984-49.567 38.522-80.693 1.464-12.879 8.181-24.338 18.429-31.438 4.519-3.131 8.787-6.695 12.686-10.595 29.227-29.227 35.251-76.159 16.149-117.431l157.312-157.311c16.417-16.417 16.417-43.128 0-59.544zm-194.675 313.074c-2.632 2.633-5.511 5.037-8.557 7.147-17.357 12.025-28.711 31.237-31.152 52.709-2.764 24.313-13.113 46.054-29.928 62.869-43.424 43.424-117.217 40.288-164.498-6.991-47.278-47.279-50.415-121.072-6.99-164.497 16.814-16.814 38.554-27.164 62.868-29.928 21.473-2.44 40.684-13.795 52.709-31.151 2.109-3.045 4.515-5.924 7.148-8.559 17.917-17.915 46.104-22.918 73.11-14.254l-39.281 39.281c-14.678.674-28.349 6.885-38.589 17.638-9.413 9.884-14.999 22.943-15.615 36.578-.731 16.193 5.239 31.537 16.616 42.915 11.376 11.376 26.718 17.346 42.909 16.617 13.636-.614 26.695-6.199 36.581-15.611 10.756-10.241 16.969-23.914 17.643-38.594l39.295-39.295c8.68 26.992 3.672 55.185-14.269 73.126zm-81.117-63.428c6.144.172 12.112 2.474 16.768 6.487 11.98 10.326 12.479 28.505 1.499 39.485-5.271 5.271-12.342 8.089-19.827 7.879-6.144-.172-12.112-2.474-16.768-6.487-11.98-10.326-12.479-28.505-1.498-39.485 5.269-5.271 12.341-8.089 19.826-7.879zm47.121-3.858c-2.182-3.381-4.728-6.562-7.641-9.476-2.914-2.914-6.095-5.46-9.477-7.642l164.665-164.665 17.118 17.118zm207.458-207.457-21.58 21.579-17.118-17.118 21.579-21.579c4.721-4.719 12.4-4.718 17.119 0 4.719 4.719 4.719 12.398 0 17.118z"/><path id="XMLID_1470_" d="m86.039 135.262v-73.614h44v45.25l-22.694 18.666 19.056 23.169 33.638-27.666v-89.419h-104v89.721l-21.035 17.84 19.404 22.879z"/><path id="XMLID_1471_" d="m409.373 344.648h-23.881v89.721l-21.036 17.84 19.404 22.879 31.631-26.826v-72.876c11.208 2.751 19.547 12.885 19.547 24.93v17.667h30v-17.667c.001-30.696-24.97-55.668-55.665-55.668z"/><path id="XMLID_1472_" d="m285.039 63.315c7.846 0 15.363-6.899 15-15-.364-8.127-6.591-15-15-15-7.846 0-15.363 6.899-15 15 .364 8.128 6.591 15 15 15z"/><path id="XMLID_1473_" d="m455.039 241.315c-.364-8.127-6.591-15-15-15-7.846 0-15.363 6.899-15 15 .364 8.127 6.591 15 15 15 7.847 0 15.363-6.899 15-15z"/></g></svg>