<?xml version="1.0" encoding="UTF-8"?>
<svg xmlns="http://www.w3.org/2000/svg" xmlns:xlink="http://www.w3.org/1999/xlink" version="1.1" id="Layer_1" x="0px" y="0px" viewBox="0 0 510 510" style="enable-background:new 0 0 510 510;" xml:space="preserve" width="512" height="512">
<g>
	<g>
		<path style="fill:none;stroke:#000000;stroke-width:30;stroke-miterlimit:10;" d="M279.791,187.782L15,282.868v21.213&#10;&#9;&#9;&#9;l71.927,27.668c41.991,16.15,75.174,49.333,91.324,91.324L205.919,495h21.213l95.019-264.725"/>
		
			<line style="fill:none;stroke:#000000;stroke-width:30;stroke-miterlimit:10;" x1="260.826" y1="401.414" x2="108.585" y2="249.174"/>
		<polygon style="fill:none;stroke:#000000;stroke-width:30;stroke-miterlimit:10;" points="435,15 417.806,49.274 207.27,260.304 &#10;&#9;&#9;&#9;249.697,302.729 462.058,90 495,75 495,15 &#9;&#9;"/>
		<line style="fill:none;stroke:#000000;stroke-width:30;stroke-miterlimit:10;" x1="460.3" y1="91.77" x2="417.8" y2="49.27"/>
		<line style="fill:none;stroke:#000000;stroke-width:30;stroke-miterlimit:10;" x1="417.9" y1="134.23" x2="375.42" y2="91.75"/>
		
			<line style="fill:none;stroke:#000000;stroke-width:30;stroke-miterlimit:10;" x1="375.51" y1="176.689" x2="333.05" y2="134.23"/>
		<line style="fill:none;stroke:#000000;stroke-width:30;stroke-miterlimit:10;" x1="333.13" y1="219.16" x2="290.67" y2="176.7"/>
		<line style="fill:none;stroke:#000000;stroke-width:30;stroke-miterlimit:10;" x1="290.74" y1="261.62" x2="248.3" y2="219.18"/>
		<ellipse style="fill:none;stroke:#000000;stroke-width:30;stroke-miterlimit:10;" cx="382.5" cy="465" rx="37.5" ry="30"/>
		<path style="fill:none;stroke:#000000;stroke-width:30;stroke-miterlimit:10;" d="M420,465V360c28.25,3.5,40,20,45,30"/>
		<ellipse style="fill:none;stroke:#000000;stroke-width:30;stroke-miterlimit:10;" cx="82.5" cy="135" rx="37.5" ry="30"/>
		<path style="fill:none;stroke:#000000;stroke-width:30;stroke-miterlimit:10;" d="M120,135V30c28.25,3.5,40,20,45,30"/>
	</g>
</g>















</svg>
