<?xml version='1.0' encoding='utf-8'?>
<svg xmlns="http://www.w3.org/2000/svg" width="136.46487mm" height="255.73215mm" viewBox="0 0 136.46487 255.73215" version="1.1" id="svg5" xml:space="preserve"><defs id="defs2" /><g id="layer1"><path style="fill:#000000" d="m 28.792899999999463 254.95800000000054 c -0.735,-0.7355 -0.773,-0.8854 -0.773,-3.0601 0,-4.2126 -0.312,-4.104 11.765,-4.104 h 9.401 v -27.8957 c 0,-26.3393 -0.03,-27.9033 -0.463,-28.0312 -0.254,-0.074 -1.498,-0.3764 -2.763,-0.6708 -3.132,-0.7288 -8.437,-2.4768 -11.824,-3.8962 -14.676,-6.1486 -25.888,-17.4721 -30.194,-30.4949 -1.832,-5.5396 -1.942,-6.6242 -2.042,-20.1068 l -0.09,-12.0092 -0.647,-0.769 c -0.356,-0.423 -0.784,-1.2696 -0.952,-1.8814 -0.414,-1.5099 -0.164,-22.7176 0.281,-23.8667 0.448,-1.1583 1.832,-2.48 2.909,-2.7792 1.472,-0.4089 9.119,-0.3344 10.156,0.099 1.309,0.5468 2.728,2.3591 2.994,3.8228 l 0.225,1.2387 1.321,0.083 c 0.727,0.046 1.691,0.014 2.143,-0.071 l 0.822,-0.1542 0.271,-34.4572 c 0.297,-37.7178 0.195,-35.5562 1.921,-40.7124 2.337,-6.9831 6.767,-13.2333 12.305,-17.3651 2.195,-1.6369 7.347,-4.2364 10.319,-5.2055 2.519,-0.8214 7.395,-1.8226 11.245,-2.3088 4.276,-0.5401 18.503,-0.459 22.886,0.1304 10.377,1.3954 16.606,3.5707 22.16,7.7394 6.369,4.7793 10.826,12.0663 12.537,20.4919 0.414,2.0398 0.464,5.3998 0.55,36.9702 l 0.09,34.7266 h 2.34 2.34 l 0.316,-1.2568 c 0.421,-1.6762 1.42,-2.9273 2.839,-3.5548 1.03,-0.4556 1.665,-0.5056 5.473,-0.4316 4.164,0.081 4.344,0.1075 5.38,0.794 0.672,0.4455 1.306,1.185 1.699,1.9843 0.624,1.2665 0.628,1.3388 0.712,11.8576 0.05,5.8208 0,11.0899 -0.08,11.709 -0.101,0.6768 -0.522,1.5904 -1.057,2.2911 l -0.89,1.1654 -0.09,11.335 c -0.1,11.3342 -0.1,11.3351 -0.839,14.5099 -2.571,10.9804 -9.674,21.2971 -19.92,28.9323 -8.013,5.9706 -18.448,10.4119 -28.266,12.0298 l -2.117,0.3489 -0.07,27.8294 -0.07,27.8294 h 8.877 c 9.818,0 10.127,0.047 10.675,1.619 0.378,1.0817 0.378,3.6178 0,4.6996 -0.6,1.722 1.783,1.6189 -37.417,1.6189 h -35.62 z m 35.739,-32.1484 v -24.9844 l -1.521,-0.3048 c -0.837,-0.1676 -3.069,-0.64 -4.961,-1.0497 -1.892,-0.4097 -3.499,-0.6878 -3.572,-0.6181 -0.07,0.07 -0.169,11.7851 -0.215,26.0341 l -0.08,25.9072 h 5.175 5.176 z m 13.229,-34.4161 c 7.358,-0.8211 12.478,-1.9843 18.251,-4.1462 8.914,-3.3383 15.304,-7.5017 21.701,-14.1393 3.79,-3.9318 5.927,-6.9312 8.085,-11.3464 3.735,-7.6403 4.305,-11.1323 4.133,-25.3338 l -0.09,-7.0776 h -1.14 -1.14 l -0.127,9.5911 c -0.114,8.5181 -0.193,9.9144 -0.711,12.4803 -1.368,6.7778 -4.792,13.4917 -9.735,19.0891 -6.475,7.3325 -15.977,13.1998 -25.881,15.9807 -12.67,3.5576 -29.391,4.0789 -42.189,1.3153 -9.627,-2.0786 -16.79,-5.2372 -23.775,-10.4829 -7.993,-6.0035 -13.749,-14.76 -15.488,-23.561 -0.754,-3.8129 -0.954,-7.1589 -0.954,-15.9355 v -8.7417 h -1.191 -1.19 v 9.7304 c 0,10.3349 0.16,12.5837 1.207,16.977 2.471,10.3617 10.367,20.4221 20.887,26.6136 9.135,5.3762 19.64,8.5048 31.497,9.38 4.174,0.3081 13.379,0.1054 17.846,-0.3931 z m -4.233,-6.2208 c 5.392,-0.371 9.322,-0.9471 13.694,-2.0074 4.951,-1.2006 7.714,-2.1924 11.574,-4.1551 12.579,-6.3959 20.724,-16.1172 23.579,-28.143 0.343,-1.4447 0.454,-3.8548 0.553,-12.0582 0.08,-6.8282 0.03,-10.2526 -0.143,-10.2526 -0.451,0 -1.892,-1.3409 -2.31,-2.1494 -0.218,-0.4199 -0.422,-1.4168 -0.454,-2.2152 l -0.06,-1.4517 h -2.182 -2.183 v 11.7078 c 0,8.8561 -0.09,12.32 -0.383,14.2214 -1.807,11.896 -9.284,21.6261 -21.201,27.5872 -10.552,5.2787 -26.69,6.8622 -40.856,4.0089 -9.12,-1.837 -16.824,-5.7547 -22.524,-11.4539 -4.923,-4.923 -7.766,-10.1186 -9.251,-16.9027 -0.521,-2.385 -0.574,-3.5737 -0.695,-15.8734 l -0.132,-13.2953 h -1.807 -1.806 l -0.183,1.2568 c -0.303,2.082 -1.321,3.6805 -2.85,4.4756 l -0.75,0.3905 0.121,10.4985 c 0.107,9.2491 0.185,10.7975 0.658,13.0119 1.015,4.7503 2.613,8.5924 5.238,12.5916 2.246,3.4211 7.139,8.2422 10.817,10.6575 11.245,7.3843 26.481,10.728 43.537,9.5547 z m -12.171,-26.0375 c 6.518,-1.4035 11.277,-3.9842 15.468,-8.3877 3.654,-3.8405 5.681,-7.6915 7.085,-13.4598 0.507,-2.0843 0.555,-3.2257 0.658,-15.587 l 0.112,-13.338 -26.015,0.1734 c -14.308,0.095 -27.124,0.2517 -28.478,0.3475 l -2.464,0.174 0.107,14.7104 c 0.114,15.6447 0.122,15.7453 1.493,19.6938 1.423,4.0996 4.569,8.4943 7.878,11.0035 3.127,2.3719 7.396,4.1769 11.666,4.9324 2.668,0.472 9.772,0.3227 12.49,-0.2625 z m 1.985,-31.2069 c -4.763,-2.2428 -6.031,-7.7224 -2.655,-11.4766 1.458,-1.6224 3.288,-2.4705 5.385,-2.4962 2.16,-0.026 3.613,0.5046 5.142,1.8794 4.026,3.6198 3.31,9.5374 -1.442,11.912 -2.112,1.0554 -4.435,1.1209 -6.43,0.1814 z m 4.604,-3.724 c 1.145,-0.5925 1.715,-1.6693 1.731,-3.2745 0.01,-1.297 -0.06,-1.4809 -0.974,-2.3151 -0.869,-0.7971 -1.159,-0.9062 -2.412,-0.9062 -1.656,0 -2.664,0.6274 -3.246,2.0203 -0.478,1.1428 -0.46,1.7997 0.08,2.9319 0.816,1.7201 3.081,2.4448 4.824,1.5436 z m -56.595,-11.126 v -9.9219 h -3.043 -3.043 v 9.9219 9.9219 h 3.043 3.043 z m 119.856,0 v -9.9219 h -2.91 -2.911 v 9.9219 9.9219 h 2.911 2.91 z m -110.331,0.098 v -2.9451 l -0.992,0.164 c -0.546,0.09 -1.439,0.1653 -1.985,0.1669 h -0.992 v 2.7781 2.7781 h 1.985 1.984 z m 98.954,0.1669 v -2.7781 h -2.117 -2.116 v 2.7781 2.7781 h 2.116 2.117 z m -47.588,-11.1787 1.418,-0.9922 h 14.883 14.883 v -1.6143 -1.6143 l -4.408,-0.1739 c -2.424,-0.096 -9.217,-0.1738 -15.094,-0.1738 -11.726,0 -11.831,-0.013 -12.641,-1.5789 -0.863,-1.6695 -0.29,-3.833 1.266,-4.7818 0.813,-0.4963 1.436,-0.5166 15.876,-0.5175 h 15.029 l -0.08,-1.3891 -0.08,-1.389 -14.708,-0.1696 c -16.053,-0.185 -15.65,-0.1435 -16.913,-1.7434 -0.771,-0.9777 -0.657,-3.4537 0.202,-4.3673 l 0.564,-0.5989 -5.277,0.077 c -2.901,0.042 -5.276,0.1672 -5.276,0.2778 0,0.1106 0.143,0.3436 0.317,0.5178 0.549,0.5493 0.418,3.0881 -0.203,3.9362 -1.186,1.6184 -0.918,1.5888 -16.186,1.7869 -7.677,0.1 -15.268,0.2327 -16.868,0.2956 l -2.911,0.1145 -0.08,1.4277 -0.08,1.4276 17.012,-0.1234 c 16.942,-0.1229 17.016,-0.1212 17.888,0.4331 1.552,0.9864 2.067,3.1452 1.12,4.6978 -1.155,1.8937 -0.104,1.7857 -18.785,1.9327 l -16.813,0.1322 -0.08,1.7749 -0.08,1.7749 1.268,-0.1135 c 2.466,-0.2206 29.068,-0.3526 30.316,-0.1505 0.753,0.122 1.718,0.5389 2.382,1.0289 l 1.115,0.8238 4.799,0.01 4.799,0.01 z m -22.923,-7.2677 c 2.91,-0.03 6.125,-0.128 7.143,-0.2166 2.642,-0.23 -11.462,-0.2878 -19.536,-0.08 -4.204,0.1082 -6.79,0.2748 -6.79,0.4376 0,0.1719 2.405,0.2026 6.946,0.089 3.82,-0.096 9.326,-0.1992 12.237,-0.2297 z m 29.179,-0.4009 c -0.687,-0.054 -1.877,-0.055 -2.646,0 -0.769,0.054 -0.207,0.098 1.248,0.099 1.455,7e-4 2.084,-0.043 1.398,-0.097 z m -21.11,-10.1111 c 1.492,-0.2653 -18.937,-0.2896 -23.68,-0.028 -2.264,0.1248 0.991,0.1982 9.525,0.2148 7.131,0.014 13.501,-0.07 14.155,-0.1867 z m 27.252,0 c 0.758,-0.1348 -0.829,-0.2047 -4.365,-0.1922 -4.612,0.016 -5.039,0.047 -2.514,0.1787 4.625,0.2417 5.586,0.2436 6.879,0.013 z m -20.505,-3.8012 c 14.407,-0.01 29.141,0.083 32.742,0.1984 l 6.549,0.2092 v -1.4523 -1.4524 l -9.459,-0.1923 c -7.983,-0.1623 -9.531,-0.2564 -9.922,-0.6028 -0.616,-0.5463 -0.586,-1.5279 0.07,-2.1805 0.51,-0.5093 0.882,-0.5292 9.922,-0.5292 h 9.393 v -1.4552 -1.4552 l -3.109,-0.033 c -1.71,-0.018 -8.606,-0.1072 -15.325,-0.1984 l -12.216,-0.1659 -0.687,-0.6456 c -1.613,-1.5166 -1.481,-4.0185 0.295,-5.578 l 0.967,-0.8487 15.037,0.1016 15.038,0.1016 v -1.3703 -1.3704 l -2.183,-0.1667 c -1.2,-0.092 -8.119,-0.2513 -15.375,-0.3545 l -13.192,-0.1877 -0.753,-0.9019 c -1.397,-1.6734 -1.248,-3.5562 0.394,-4.9983 1.405,-1.2331 2.595,-1.2659 25.222,-0.6939 l 5.887,0.1488 v -1.4345 -1.4345 l -2.183,-0.1725 c -1.2,-0.095 -7.957,-0.2481 -15.015,-0.3405 -10.113,-0.1324 -12.986,-0.2453 -13.555,-0.5327 -1.481,-0.7466 -1.991,-3.1624 -1.008,-4.7746 0.708,-1.1611 1.925,-1.7226 4.065,-1.8757 2.033,-0.1455 25.573,0.4172 26.704,0.6382 l 0.727,0.1422 v -1.5674 -1.5674 l -4.035,-0.1714 c -2.219,-0.094 -8.857,-0.2483 -14.75,-0.3423 -11.708,-0.1868 -11.8,-0.1996 -12.599,-1.7463 -0.865,-1.6717 -0.334,-3.9277 1.153,-4.8973 0.638,-0.4163 1.498,-0.4655 8.13,-0.4655 h 7.417 l 1.416,-3.3073 c 2.305,-5.3833 2.488,-6.3194 2.62,-13.4041 l 0.114,-6.1281 -2.301,-0.7018 c -1.265,-0.386 -2.342,-0.6601 -2.393,-0.6093 -0.05,0.051 -0.176,3.2144 -0.279,7.0302 -0.139,5.197 -0.272,7.0096 -0.531,7.2242 -0.19,0.1575 -0.809,0.3487 -1.376,0.4248 -0.87,0.1166 -1.164,0.019 -1.877,-0.6191 l -0.846,-0.7574 0.01,-7.0115 c 0,-3.8563 -0.08,-7.1541 -0.191,-7.3284 -0.205,-0.3184 -4.986,-1.0606 -5.234,-0.8125 -0.07,0.073 -0.208,3.3286 -0.3,7.235 -0.163,6.9413 -0.181,7.1162 -0.773,7.7083 -0.756,0.756 -2.18,0.8029 -3.048,0.1005 -0.624,-0.5047 -0.625,-0.5157 -0.757,-8.0036 l -0.132,-7.4983 -2.712,-0.075 -2.712,-0.075 v 6.5577 c 0,6.905 -0.172,8.2635 -1.126,8.9312 -0.887,0.6215 -2.229,0.5115 -2.985,-0.2448 l -0.65,-0.6494 v -7.1117 c 0,-3.9114 -0.05,-7.1636 -0.115,-7.227 -0.06,-0.064 -1.314,-0.01 -2.778,0.126 l -2.663,0.2414 v 7.047 c 0,7.8102 -0.02,7.9284 -1.732,8.6421 -1.022,0.427 -2.349,0.095 -2.771,-0.694 -0.15,-0.2792 -0.259,-3.3265 -0.259,-7.2041 0,-3.6961 -0.06,-6.7841 -0.142,-6.8623 -0.08,-0.078 -1.329,0.2201 -2.779,0.6629 l -2.636,0.805 v 6.6352 c 0,4.7984 -0.1,6.7514 -0.331,7.055 -0.874,1.1393 -2.951,1.4018 -3.787,0.4787 -0.457,-0.5046 -0.512,-1.1003 -0.596,-6.3682 -0.106,-6.6379 0.164,-6.2141 -2.726,-4.2935 -3.483,2.3161 -7.221,6.6787 -9.329,10.8911 -1.255,2.506 -3.337,9.6695 -2.93,10.077 0.06,0.061 2.483,-0.027 5.383,-0.1964 8.923,-0.5203 26.598,-0.8705 27.459,-0.544 1.952,0.7395 2.826,2.6967 2.079,4.653 -0.848,2.221 -0.497,2.1526 -12.591,2.4536 -5.881,0.1464 -13.461,0.4108 -16.844,0.5876 l -6.151,0.3214 v 1.4506 1.4507 l 3.902,-0.1734 c 12.086,-0.537 19.35,-0.7313 24.495,-0.6555 l 5.775,0.085 0.897,0.9793 c 1.509,1.6466 1.548,3.4733 0.106,4.8551 -0.765,0.7325 -0.925,0.7708 -3.502,0.8363 -1.486,0.038 -8.178,0.1907 -14.872,0.34 -6.694,0.1493 -13.213,0.345 -14.486,0.4349 l -2.315,0.1633 v 1.4872 1.4873 l 3.241,-0.1778 c 1.783,-0.098 9.314,-0.2566 16.736,-0.353 13.353,-0.1734 13.502,-0.1695 14.356,0.3738 2.148,1.3675 2.509,3.8985 0.781,5.4814 -1.188,1.0886 -1.341,1.1013 -15.534,1.2809 -6.185,0.078 -13.109,0.2192 -15.388,0.3132 l -4.143,0.1709 -0.09,0.8209 c -0.05,0.4515 -0.05,1.1628 0,1.5806 0.08,0.7319 0.127,0.7537 1.191,0.597 0.607,-0.09 8.202,-0.2421 16.878,-0.3391 l 15.775,-0.1764 0.832,0.5925 c 1.548,1.1025 2.067,3.1472 1.216,4.7927 -0.772,1.4921 -0.967,1.5196 -12.043,1.6933 -5.598,0.088 -13.303,0.2304 -17.123,0.3171 l -6.945,0.1576 v 1.4677 1.4678 l 8.222,-0.1672 8.222,-0.1671 0.641,0.6417 c 0.831,0.8309 0.813,1.551 -0.06,2.2341 -0.659,0.518 -1.029,0.5485 -6.681,0.55 -3.291,9e-4 -6.966,0.078 -8.166,0.1715 l -2.183,0.1699 v 1.3132 1.3131 l 6.019,-0.1981 c 3.311,-0.1089 17.807,-0.203 32.213,-0.2089 z m -11.598,-12.0873 c 3.932,0 5.645,-0.088 5.645,-0.2913 0,-0.3361 -24.112,-0.051 -26.673,0.3154 -0.867,0.1241 2.073,0.1647 6.939,0.096 4.644,-0.066 10.984,-0.1198 14.089,-0.1198 z m 30.596,-0.4618 c -1.483,-0.047 -3.983,-0.047 -5.556,-4e-4 -1.572,0.047 -0.358,0.085 2.698,0.086 3.056,2e-4 4.342,-0.038 2.858,-0.085 z m -37.982,-9.767 c 8.3,-0.1123 13.031,-0.2714 13.031,-0.4381 0,-0.1714 -3.998,-0.2008 -11.575,-0.085 -12.698,0.1937 -16.471,0.3698 -16.471,0.7688 0,0.157 0.4,0.196 0.992,0.097 0.546,-0.091 6.857,-0.2455 14.023,-0.3424 z m 42.664,-0.3665 c -4.417,-0.2986 -12.964,-0.2907 -12.964,0.012 0,0.1714 2.77,0.2489 7.871,0.2202 5.878,-0.033 7.168,-0.092 5.093,-0.2322 z m -45.376,-9.2529 c 4.948,-0.1427 10.514,-0.2596 12.37,-0.2598 1.855,-2e-4 3.373,-0.094 3.373,-0.2082 0,-0.3038 -0.163,-0.3043 -12.568,-0.035 -12.032,0.261 -15.289,0.4359 -15.058,0.8087 0.08,0.126 0.759,0.1672 1.514,0.092 0.756,-0.076 5.422,-0.2543 10.369,-0.397 z m 49.874,-0.2183 c 0,-0.2462 -7.783,-0.5691 -13.745,-0.5702 -2.511,-5e-4 -3.733,0.089 -3.562,0.2599 0.157,0.157 3.574,0.2902 8.586,0.3347 4.578,0.041 8.414,0.1019 8.523,0.1361 0.109,0.034 0.198,-0.038 0.198,-0.1605 z m -48.021,-9.9676 c 14.55,-0.5033 15.189,-0.5542 7.672,-0.6115 -6.667,-0.051 -19.565,0.4063 -21.034,0.7454 -0.897,0.2069 -0.884,0.2146 0.397,0.2413 0.728,0.015 6.562,-0.1537 12.965,-0.3752 z m 44.714,-0.393 c -0.291,-0.125 -3.506,-0.2099 -7.144,-0.1885 l -6.614,0.039 5.159,0.1496 c 8.52,0.2471 9.174,0.2471 8.599,0 z m 9.939,-16.9426 c 0.464,-0.2484 0.512,-0.5822 0.512,-3.5847 v -3.3107 l -0.86,-0.365 c -0.473,-0.2008 -0.948,-0.2795 -1.056,-0.1749 -0.107,0.1046 -0.119,1.8819 -0.02,3.9497 0.181,3.9681 0.243,4.1204 1.429,3.4856 z" id="path21" /></g></svg>