<?xml version="1.0" encoding="UTF-8" standalone="no"?>
<!-- Created with Inkscape (http://www.inkscape.org/) -->

<svg
   version="1.1"
   id="svg1908"
   xml:space="preserve"
   width="682.66669"
   height="682.66669"
   viewBox="0 0 682.66669 682.66669"
   xmlns="http://www.w3.org/2000/svg"
   xmlns:svg="http://www.w3.org/2000/svg"><defs
     id="defs1912"><clipPath
       clipPathUnits="userSpaceOnUse"
       id="clipPath1922"><path
         d="M 0,512 H 512 V 0 H 0 Z"
         id="path1920" /></clipPath></defs><g
     id="g1914"
     transform="matrix(1.3333333,0,0,-1.3333333,0,682.66667)"><g
       id="g1916"><g
         id="g1918"
         clip-path="url(#clipPath1922)"><g
           id="g1924"
           transform="translate(326.5767,321.084)"><path
             d="m 0,0 c -32.707,22.76 -71.977,30.273 -98.313,3.935 -5.936,-5.931 -11.081,-12.269 -14.858,-19.376 -14.979,-28.176 -49.262,-55.73 -81.71,-61.718 -18.612,-3.437 -35.872,-11.715 -49.893,-24.977 -44.137,-41.765 -31.797,-110.27 17.859,-161.088 50.111,-51.276 118.525,-65.467 161.746,-22.25 14.338,14.342 23.221,32.322 26.816,51.775 6.053,32.76 34.248,66.704 62.49,82.148 6.087,3.33 11.749,7.522 16.821,12.598 27.733,27.734 20.5,67.31 -2.186,100.11"
             style="fill:#ec9271;fill-opacity:1;fill-rule:nonzero;stroke:none"
             id="path1926" /></g><g
           id="g1928"
           transform="translate(343.2954,165.0537)"><path
             d="m 0,0 c 2.462,1.627 4.94,3.124 7.418,4.479 6.087,3.33 11.749,7.522 16.822,12.599 27.733,27.733 20.5,67.309 -2.186,100.11"
             style="fill:none;stroke:#000000;stroke-width:20;stroke-linecap:round;stroke-linejoin:round;stroke-miterlimit:10;stroke-dasharray:none;stroke-opacity:1"
             id="path1930" /></g><g
           id="g1932"
           transform="translate(310.6294,134.2847)"><path
             d="M 0,0 V 0"
             style="fill:none;stroke:#000000;stroke-width:20;stroke-linecap:round;stroke-linejoin:round;stroke-miterlimit:10;stroke-dasharray:none;stroke-opacity:1"
             id="path1934" /></g><g
           id="g1936"
           transform="translate(326.5767,321.084)"><path
             d="m 0,0 c -32.707,22.76 -71.977,30.273 -98.313,3.935 -5.936,-5.931 -11.081,-12.269 -14.858,-19.376 -14.979,-28.176 -49.262,-55.73 -81.71,-61.718 -18.612,-3.437 -35.872,-11.715 -49.893,-24.977 -44.137,-41.765 -31.797,-110.27 17.859,-161.088 50.111,-51.276 118.525,-65.467 161.746,-22.25 14.338,14.342 23.221,32.322 26.816,51.775 0.636,3.438 1.515,6.889 2.612,10.33"
             style="fill:none;stroke:#000000;stroke-width:20;stroke-linecap:round;stroke-linejoin:round;stroke-miterlimit:10;stroke-dasharray:none;stroke-opacity:1"
             id="path1938" /></g><g
           id="g1940"
           transform="translate(398.3193,392.8252)"><path
             d="M 0,0 64.869,64.873 103.681,26.069 38.808,-38.808 Z"
             style="fill:#bd7557;fill-opacity:1;fill-rule:nonzero;stroke:none"
             id="path1942" /></g><g
           id="g1944"
           transform="translate(398.3193,392.8252)"><path
             d="M 0,0 64.869,64.873 103.681,26.069 38.808,-38.808 Z"
             style="fill:none;stroke:#000000;stroke-width:20;stroke-linecap:round;stroke-linejoin:round;stroke-miterlimit:10;stroke-dasharray:none;stroke-opacity:1"
             id="path1946" /></g><g
           id="g1948"
           transform="translate(273.1519,191.2666)"><path
             d="m 0,0 0.612,-0.612 163.361,163.365 -38.811,38.803 -163.357,-163.361 0.61,-0.61"
             style="fill:#ffffff;fill-opacity:1;fill-rule:nonzero;stroke:#000000;stroke-width:20;stroke-linecap:round;stroke-linejoin:round;stroke-miterlimit:10;stroke-dasharray:none;stroke-opacity:1"
             id="path1950" /></g><g
           id="g1952"
           transform="translate(116.1431,123.5874)"><path
             d="M 0,0 51.745,-51.745"
             style="fill:none;stroke:#000000;stroke-width:20;stroke-linecap:round;stroke-linejoin:round;stroke-miterlimit:10;stroke-dasharray:none;stroke-opacity:1"
             id="path1954" /></g><g
           id="g1956"
           transform="translate(430.6377,447.5532)"><path
             d="M 0,0 62.949,-62.949"
             style="fill:none;stroke:#000000;stroke-width:20;stroke-linecap:round;stroke-linejoin:round;stroke-miterlimit:10;stroke-dasharray:none;stroke-opacity:1"
             id="path1958" /></g><g
           id="g1960"
           transform="translate(408.876,425.7915)"><path
             d="M 0,0 62.949,-62.949"
             style="fill:none;stroke:#000000;stroke-width:20;stroke-linecap:round;stroke-linejoin:round;stroke-miterlimit:10;stroke-dasharray:none;stroke-opacity:1"
             id="path1962" /></g><g
           id="g1964"
           transform="translate(160.626,136.6587)"><path
             d="M 0,0 20.333,-20.333"
             style="fill:none;stroke:#000000;stroke-width:20;stroke-linecap:round;stroke-linejoin:round;stroke-miterlimit:10;stroke-dasharray:none;stroke-opacity:1"
             id="path1966" /></g><g
           id="g1968"
           transform="translate(258.3779,214.0776)"><path
             d="m 0,0 c -17.863,17.858 -46.824,17.858 -64.683,0 -17.862,-17.863 -17.862,-46.82 0,-64.683 17.859,-17.862 46.82,-17.862 64.683,0 C 17.858,-46.82 17.858,-17.863 0,0"
             style="fill:#ffc857;fill-opacity:1;fill-rule:nonzero;stroke:none"
             id="path1970" /></g><g
           id="g1972"
           transform="translate(258.3779,214.0776)"><path
             d="m 0,0 c -17.863,17.858 -46.824,17.858 -64.683,0 -17.862,-17.863 -17.862,-46.82 0,-64.683 17.859,-17.862 46.82,-17.862 64.683,0 C 17.858,-46.82 17.858,-17.863 0,0 Z"
             style="fill:none;stroke:#000000;stroke-width:20;stroke-linecap:round;stroke-linejoin:round;stroke-miterlimit:10;stroke-dasharray:none;stroke-opacity:1"
             id="path1974" /></g><g
           id="g1976"
           transform="translate(57.7246,302.1079)"><path
             d="m 0,0 v 103.818 l 78.362,26.53 V 26.529"
             style="fill:none;stroke:#000000;stroke-width:20;stroke-linecap:round;stroke-linejoin:round;stroke-miterlimit:10;stroke-dasharray:none;stroke-opacity:1"
             id="path1978" /></g><g
           id="g1980"
           transform="translate(57.7246,299.4404)"><path
             d="m 0,0 c 0,-13.179 -10.684,-23.862 -23.862,-23.862 -13.179,0 -23.863,10.683 -23.863,23.862 0,13.179 10.684,23.862 23.863,23.862 C -10.684,23.862 0,13.179 0,0"
             style="fill:#b8ecff;fill-opacity:1;fill-rule:nonzero;stroke:none"
             id="path1982" /></g><g
           id="g1984"
           transform="translate(57.7246,299.4404)"><path
             d="m 0,0 c 0,-13.179 -10.684,-23.862 -23.862,-23.862 -13.179,0 -23.863,10.683 -23.863,23.862 0,13.179 10.684,23.862 23.863,23.862 C -10.684,23.862 0,13.179 0,0 Z"
             style="fill:none;stroke:#000000;stroke-width:20;stroke-linecap:round;stroke-linejoin:round;stroke-miterlimit:10;stroke-dasharray:none;stroke-opacity:1"
             id="path1986" /></g><g
           id="g1988"
           transform="translate(136.0869,325.9702)"><path
             d="m 0,0 c 0,-13.179 -10.684,-23.862 -23.862,-23.862 -13.179,0 -23.863,10.683 -23.863,23.862 0,13.179 10.684,23.862 23.863,23.862 C -10.684,23.862 0,13.179 0,0"
             style="fill:#6eb4c7;fill-opacity:1;fill-rule:nonzero;stroke:none"
             id="path1990" /></g><g
           id="g1992"
           transform="translate(136.0869,325.9702)"><path
             d="m 0,0 c 0,-13.179 -10.684,-23.862 -23.862,-23.862 -13.179,0 -23.863,10.683 -23.863,23.862 0,13.179 10.684,23.862 23.863,23.862 C -10.684,23.862 0,13.179 0,0 Z"
             style="fill:none;stroke:#000000;stroke-width:20;stroke-linecap:round;stroke-linejoin:round;stroke-miterlimit:10;stroke-dasharray:none;stroke-opacity:1"
             id="path1994" /></g><g
           id="g1996"
           transform="translate(429.1582,58.3042)"><path
             d="M 0,0 V 103.818 L 33.771,92.385"
             style="fill:none;stroke:#000000;stroke-width:20;stroke-linecap:round;stroke-linejoin:round;stroke-miterlimit:10;stroke-dasharray:none;stroke-opacity:1"
             id="path1998" /></g><g
           id="g2000"
           transform="translate(429.1582,55.6372)"><path
             d="m 0,0 c 0,-13.179 -10.684,-23.862 -23.862,-23.862 -13.179,0 -23.863,10.683 -23.863,23.862 0,13.179 10.684,23.862 23.863,23.862 C -10.684,23.862 0,13.179 0,0"
             style="fill:#00dba8;fill-opacity:1;fill-rule:nonzero;stroke:none"
             id="path2002" /></g><g
           id="g2004"
           transform="translate(429.1582,55.6372)"><path
             d="m 0,0 c 0,-13.179 -10.684,-23.862 -23.862,-23.862 -13.179,0 -23.863,10.683 -23.863,23.862 0,13.179 10.684,23.862 23.863,23.862 C -10.684,23.862 0,13.179 0,0 Z"
             style="fill:none;stroke:#000000;stroke-width:20;stroke-linecap:round;stroke-linejoin:round;stroke-miterlimit:10;stroke-dasharray:none;stroke-opacity:1"
             id="path2006" /></g><g
           id="g2008"
           transform="translate(300.7305,501.4268)"><path
             d="m 0,0 c -14.841,0.16 -26.663,-16.262 -26.663,-16.262 0,0 -10.805,16.666 -26.313,16.834 -15.084,0.162 -27.536,-12.146 -28.504,-27.2 -0.546,-8.506 2.127,-15.012 5.929,-20.919 7.597,-11.803 48.174,-39.479 48.174,-39.479 0,0 41.01,26.693 48.912,38.432 3.937,5.85 6.742,12.271 6.378,20.785 C 27.269,-12.737 15.085,-0.163 0,0"
             style="fill:#ff5d5d;fill-opacity:1;fill-rule:nonzero;stroke:none"
             id="path2010" /></g><g
           id="g2012"
           transform="translate(300.7305,501.4268)"><path
             d="m 0,0 c -14.841,0.16 -26.663,-16.262 -26.663,-16.262 0,0 -10.805,16.666 -26.313,16.834 -15.084,0.162 -27.536,-12.146 -28.504,-27.2 -0.546,-8.506 2.127,-15.012 5.929,-20.919 7.597,-11.803 48.174,-39.479 48.174,-39.479 0,0 41.01,26.693 48.912,38.432 3.937,5.85 6.742,12.271 6.378,20.785 C 27.269,-12.737 15.085,-0.163 0,0 Z"
             style="fill:none;stroke:#000000;stroke-width:20;stroke-linecap:round;stroke-linejoin:round;stroke-miterlimit:10;stroke-dasharray:none;stroke-opacity:1"
             id="path2014" /></g></g></g></g></svg>
