<svg id="icons" enable-background="new 0 0 64 64" height="512" viewBox="0 0 64 64" width="512" xmlns="http://www.w3.org/2000/svg"><g><g><path d="m4.001 37.002c-.553 0-1-.447-1-1v-3.867c0-.553.447-1 1-1s1 .447 1 1v3.867c0 .553-.447 1-1 1z"/></g><g><path d="m18.001 37.002c-.553 0-1-.447-1-1v-4.5c0-.553.447-1 1-1s1 .447 1 1v4.5c0 .553-.447 1-1 1z"/></g><g><path d="m18.001 32.502c-.553 0-1-.447-1-1 0-3.584-2.916-6.5-6.501-6.5-3.584 0-6.499 2.916-6.499 6.5 0 .553-.447 1-1 1s-1-.447-1-1c0-4.687 3.813-8.5 8.499-8.5 4.688 0 8.501 3.813 8.501 8.5 0 .553-.447 1-1 1z"/></g><g><path d="m18.002 33.873c-.301 0-.598-.135-.795-.392-1.931-2.523-2.457-2.313-4.414-1.538-1.878.743-4.716 1.87-9.948 1.042-.545-.086-.918-.598-.831-1.144.085-.545.598-.919 1.144-.831 4.692.741 7.123-.224 8.899-.927 2.408-.955 4.024-1.363 6.738 2.181.336.438.253 1.066-.186 1.402-.181.14-.395.207-.607.207z"/></g><g><path d="m14 31.479c-.147 0-.298-.033-.439-.103-.496-.243-.7-.843-.457-1.338l2-4.072c.243-.496.842-.7 1.338-.457s.7.843.457 1.338l-2 4.072c-.174.354-.53.56-.899.56z"/></g><g><path d="m2.001 49.998c-.553 0-1-.447-1-1 0-2.206 1.794-4 4-4 .553 0 1 .447 1 1s-.447 1-1 1c-1.103 0-2 .897-2 2 0 .553-.447 1-1 1z"/></g><g><path d="m8.001 47.004h-3c-.553 0-1-.447-1-1s.447-1 1-1h3c.553 0 1 .447 1 1s-.447 1-1 1z"/></g><g><path d="m2.001 54.002c-.553 0-1-.447-1-1v-4.004c0-.553.447-1 1-1s1 .447 1 1v4.004c0 .553-.447 1-1 1z"/></g><g><path d="m20.001 49.998c-.553 0-1-.447-1-1 0-1.103-.897-2-2-2-.553 0-1-.447-1-1s.447-1 1-1c2.206 0 4 1.794 4 4 0 .553-.447 1-1 1z"/></g><g><path d="m17.001 47.004h-3c-.553 0-1-.447-1-1s.447-1 1-1h3c.553 0 1 .447 1 1s-.447 1-1 1z"/></g><g><path d="m20.001 54.002c-.553 0-1-.447-1-1v-4.004c0-.553.447-1 1-1s1 .447 1 1v4.004c0 .553-.447 1-1 1z"/></g><g><path d="m8.001 47.004c-.553 0-1-.447-1-1v-3.684c0-.553.447-1 1-1s1 .447 1 1v3.684c0 .553-.447 1-1 1z"/></g><g><path d="m14.001 46.998c-.553 0-1-.447-1-1v-3.678c0-.553.447-1 1-1s1 .447 1 1v3.678c0 .553-.447 1-1 1z"/></g><g><path d="m11.001 43.994c-4.411 0-8-3.587-8-7.996 0-.553.447-1 1-1s1 .447 1 1c0 3.307 2.691 5.996 6 5.996s6-2.689 6-5.996c0-.553.447-1 1-1s1 .447 1 1c0 4.409-3.589 7.996-8 7.996z"/></g><g><path d="m45.999 37.002c-.553 0-1-.447-1-1v-8.004c0-.553.447-1 1-1s1 .447 1 1v8.004c0 .553-.447 1-1 1z"/></g><g><path d="m59.999 37.002c-.553 0-1-.447-1-1v-.293c0-.553.447-1 1-1s1 .447 1 1v.293c0 .553-.447 1-1 1z"/></g><g><path d="m43.999 49.998c-.553 0-1-.447-1-1 0-2.206 1.794-4 4-4 .553 0 1 .447 1 1s-.447 1-1 1c-1.103 0-2 .897-2 2 0 .553-.447 1-1 1z"/></g><g><path d="m49.999 47.004h-3c-.553 0-1-.447-1-1s.447-1 1-1h3c.553 0 1 .447 1 1s-.447 1-1 1z"/></g><g><path d="m43.999 54.002c-.553 0-1-.447-1-1v-4.004c0-.553.447-1 1-1s1 .447 1 1v4.004c0 .553-.447 1-1 1z"/></g><g><path d="m61.999 49.998c-.553 0-1-.447-1-1 0-1.103-.897-2-2-2-.553 0-1-.447-1-1s.447-1 1-1c2.206 0 4 1.794 4 4 0 .553-.447 1-1 1z"/></g><g><path d="m58.999 47.004h-3c-.553 0-1-.447-1-1s.447-1 1-1h3c.553 0 1 .447 1 1s-.447 1-1 1z"/></g><g><path d="m61.999 54.002c-.553 0-1-.447-1-1v-4.004c0-.553.447-1 1-1s1 .447 1 1v4.004c0 .553-.447 1-1 1z"/></g><g><path d="m49.999 47.004c-.553 0-1-.447-1-1v-3.684c0-.553.447-1 1-1s1 .447 1 1v3.684c0 .553-.447 1-1 1z"/></g><g><path d="m55.999 46.998c-.553 0-1-.447-1-1v-3.678c0-.553.447-1 1-1s1 .447 1 1v3.678c0 .553-.447 1-1 1z"/></g><g><path d="m52.999 43.994c-4.411 0-8-3.587-8-7.996 0-.553.447-1 1-1s1 .447 1 1c0 3.307 2.691 5.996 6 5.996s6-2.689 6-5.996c0-.553.447-1 1-1s1 .447 1 1c0 4.409-3.589 7.996-8 7.996z"/></g><g><path d="m20 61.002c-.553 0-1-.447-1-1 0-3.309 2.691-6 6-6 .553 0 1 .447 1 1s-.447 1-1 1c-2.206 0-4 1.794-4 4 0 .553-.447 1-1 1z"/></g><g><path d="m28 56.002h-3c-.553 0-1-.447-1-1s.447-1 1-1h3c.553 0 1 .447 1 1s-.447 1-1 1z"/></g><g><path d="m20 64c-.553 0-1-.447-1-1v-2.998c0-.553.447-1 1-1s1 .447 1 1v2.998c0 .553-.447 1-1 1z"/></g><g><path d="m44 61.002c-.553 0-1-.447-1-1 0-2.206-1.794-4-4-4-.553 0-1-.447-1-1s.447-1 1-1c3.309 0 6 2.691 6 6 0 .553-.447 1-1 1z"/></g><g><path d="m39 56.002h-3c-.553 0-1-.447-1-1s.447-1 1-1h3c.553 0 1 .447 1 1s-.447 1-1 1z"/></g><g><path d="m44 64c-.553 0-1-.447-1-1v-2.998c0-.553.447-1 1-1s1 .447 1 1v2.998c0 .553-.447 1-1 1z"/></g><g><path d="m28 56.002c-.553 0-1-.447-1-1v-3.936c0-.553.447-1 1-1s1 .447 1 1v3.936c0 .553-.447 1-1 1z"/></g><g><path d="m36 56.002c-.553 0-1-.447-1-1v-3.936c0-.553.447-1 1-1s1 .447 1 1v3.936c0 .553-.447 1-1 1z"/></g><g><path d="m31.999 53.002c-5.514 0-9.999-4.485-9.999-9.998 0-.553.447-1 1-1s1 .447 1 1c0 4.41 3.588 7.998 7.999 7.998 4.412 0 8.001-3.588 8.001-7.998 0-.553.447-1 1-1s1 .447 1 1c0 5.513-4.486 9.998-10.001 9.998z"/></g><g><path d="m23 44.053c-.553 0-1-.447-1-1v-6.051c0-.553.447-1 1-1s1 .447 1 1v6.051c0 .552-.447 1-1 1z"/></g><g><path d="m41 44.004c-.553 0-1-.447-1-1v-6.002c0-.553.447-1 1-1s1 .447 1 1v6.002c0 .553-.447 1-1 1z"/></g><g><path d="m41 38.002c-.553 0-1-.447-1-1 0-1.654-1.346-3-3-3-.553 0-1-.447-1-1s.447-1 1-1c2.757 0 5 2.243 5 5 0 .553-.447 1-1 1z"/></g><g><path d="m37 34.002c-.553 0-1-.447-1-1v-4c0-.553.447-1 1-1s1 .447 1 1v4c0 .553-.447 1-1 1z"/></g><g><path d="m37 30.016h-6c-.553 0-1-.447-1-1s.447-1 1-1h6c.553 0 1 .447 1 1s-.447 1-1 1z"/></g><g><path d="m23 38.002c-.553 0-1-.447-1-1 0-4.963 4.037-9 9-9 .553 0 1 .447 1 1s-.447 1-1 1c-3.859 0-7 3.141-7 7 0 .553-.447 1-1 1z"/></g><g><g><path d="m40.999 41.027c-.192 0-.387-.056-.559-.171l-3-2.025c-.458-.31-.578-.931-.27-1.389.31-.457.93-.576 1.389-.27l3 2.025c.458.31.578.931.27 1.389-.193.287-.509.441-.83.441z"/></g><g><path d="m32.5 40.002c-3.612 0-6.687-1.008-6.815-1.051-.523-.175-.807-.74-.634-1.264.174-.523.738-.809 1.264-.635.029.01 2.908.949 6.186.949 3.178 0 5.04-.888 5.059-.897.494-.239 1.094-.037 1.337.457s.043 1.09-.449 1.336c-.093.045-2.262 1.105-5.948 1.105z"/></g><g><path d="m23.001 41.027c-.321 0-.637-.154-.83-.44-.309-.458-.188-1.079.27-1.389l3-2.025c.46-.307 1.079-.188 1.389.27.309.458.188 1.079-.27 1.389l-3 2.025c-.172.115-.367.17-.559.17z"/></g></g><g><path d="m61.999 31.998c-.553 0-1-.447-1-1 0-3.859-3.141-7-7-7-1.782 0-3.362.968-4.374 1.78-.432.346-1.06.276-1.406-.154-.346-.431-.276-1.061.154-1.406 1.81-1.452 3.755-2.22 5.626-2.22 4.963 0 9 4.037 9 9 0 .553-.447 1-1 1z"/></g><g><path d="m61.999 41.998c-.553 0-1-.447-1-1 0-3.859-3.141-7-7-7-.553 0-1-.447-1-1s.447-1 1-1c4.963 0 9 4.037 9 9 0 .553-.447 1-1 1z"/></g><g><path d="m45.999 33.998c-.553 0-1-.447-1-1s.447-1 1-1c1.103 0 2-.897 2-2 0-.553.447-1 1-1s1 .447 1 1c0 2.206-1.794 4-4 4z"/></g><g><path d="m45.999 29.012c-.553 0-1-.447-1-1 0-2.206 1.794-4 4-4 .553 0 1 .447 1 1s-.447 1-1 1c-1.103 0-2 .897-2 2 0 .552-.447 1-1 1z"/></g><g><path d="m51.999 33.998c-2.206 0-4-1.794-4-4 0-.553.447-1 1-1s1 .447 1 1c0 1.103.897 2 2 2 .553 0 1 .447 1 1s-.447 1-1 1z"/></g><g><path d="m48.999 30.998c-.553 0-1-.447-1-1v-5c0-.553.447-1 1-1s1 .447 1 1v5c0 .553-.447 1-1 1z"/></g><g><path d="m61.999 41.998c-.553 0-1-.447-1-1v-10c0-.553.447-1 1-1s1 .447 1 1v10c0 .553-.447 1-1 1z"/></g><g><path d="m53.999 33.998h-2c-.553 0-1-.447-1-1s.447-1 1-1h2c.553 0 1 .447 1 1s-.447 1-1 1z"/></g><g><path d="m3.001 32.998c-.553 0-1-.447-1-1v-.496c0-.553.447-1 1-1s1 .447 1 1v.496c0 .553-.447 1-1 1z"/></g><g><path d="m31.997 26c-7.168 0-13-5.832-13-13s5.832-13 13-13 13 5.832 13 13-5.832 13-13 13zm0-24c-6.065 0-11 4.935-11 11s4.935 11 11 11 11-4.935 11-11-4.934-11-11-11z"/></g><g><path d="m10.999 48.004c-2.349 0-3.574-1.161-3.706-1.294-.39-.391-.39-1.024.002-1.414.388-.386 1.013-.39 1.404-.008.048.044.799.716 2.3.716 1.52 0 2.275-.689 2.307-.719.398-.374 1.029-.364 1.408.03.379.393.38 1.01-.006 1.396-.133.133-1.362 1.293-3.709 1.293z"/></g><g><path d="m52.998 48.004c-2.349 0-3.574-1.161-3.706-1.294-.39-.391-.39-1.024.002-1.414.387-.386 1.012-.39 1.404-.008.048.044.799.716 2.3.716 1.52 0 2.275-.689 2.307-.719.398-.374 1.029-.364 1.408.03.379.393.38 1.01-.006 1.396-.133.133-1.362 1.293-3.709 1.293z"/></g><g><path d="m32 58.004c-3.577 0-4.843-2.451-4.895-2.555-.247-.494-.047-1.095.447-1.342.492-.242 1.087-.049 1.336.437.044.08.831 1.46 3.111 1.46 2.317 0 3.099-1.435 3.105-1.449.246-.494.849-.692 1.342-.447.494.247.694.848.447 1.342-.05.103-1.316 2.554-4.893 2.554z"/></g><g><g><path d="m28.501 19.996c-1.379 0-2.5-1.121-2.5-2.5s1.121-2.5 2.5-2.5 2.5 1.121 2.5 2.5-1.121 2.5-2.5 2.5zm0-3c-.275 0-.5.225-.5.5s.225.5.5.5.5-.225.5-.5-.225-.5-.5-.5z"/></g><g><path d="m30.001 18.496c-.553 0-1-.447-1-1v-7.502c0-.553.447-1 1-1s1 .447 1 1v7.502c0 .553-.447 1-1 1z"/></g><g><path d="m35.508 17.994c-1.379 0-2.5-1.121-2.5-2.5s1.121-2.5 2.5-2.5 2.5 1.121 2.5 2.5-1.121 2.5-2.5 2.5zm0-3c-.275 0-.5.225-.5.5s.225.5.5.5.5-.225.5-.5-.225-.5-.5-.5z"/></g><g><path d="m37.008 16.494c-.553 0-1-.447-1-1v-7.502c0-.553.447-1 1-1s1 .447 1 1v7.502c0 .553-.447 1-1 1z"/></g><g><path d="m30 10.994c-.435 0-.835-.286-.961-.726-.151-.53.156-1.084.688-1.236l7.007-2.002c.526-.145 1.084.155 1.236.688.151.53-.156 1.084-.688 1.236l-7.007 2.002c-.091.025-.183.038-.275.038z"/></g></g></g></svg>