<?xml version="1.0" encoding="UTF-8" standalone="no"?>
<!-- Created with Inkscape (http://www.inkscape.org/) -->

<svg
   version="1.1"
   id="svg4077"
   xml:space="preserve"
   width="682.66669"
   height="682.66669"
   viewBox="0 0 682.66669 682.66669"
   xmlns="http://www.w3.org/2000/svg"
   xmlns:svg="http://www.w3.org/2000/svg"><defs
     id="defs4081"><clipPath
       clipPathUnits="userSpaceOnUse"
       id="clipPath4091"><path
         d="M 0,512 H 512 V 0 H 0 Z"
         id="path4089" /></clipPath></defs><g
     id="g4083"
     transform="matrix(1.3333333,0,0,-1.3333333,0,682.66667)"><g
       id="g4085"><g
         id="g4087"
         clip-path="url(#clipPath4091)"><g
           id="g4093"
           transform="translate(457.4238,456.2852)"><path
             d="m 0,0 c -134.282,10.584 -268.565,10.584 -402.848,0 -20.048,-1.581 -36.065,-17.257 -38.234,-37.251 -11.786,-108.688 -11.786,-217.377 0,-326.066 2.169,-19.994 18.186,-35.67 38.234,-37.251 134.283,-10.584 268.566,-10.584 402.848,0 20.048,1.581 36.065,17.257 38.234,37.251 11.787,108.689 11.787,217.378 0,326.066 C 36.065,-17.257 20.048,-1.581 0,0"
             style="fill:#da4a54;fill-opacity:1;fill-rule:nonzero;stroke:none"
             id="path4095" /></g><g
           id="g4097"
           transform="translate(501.1816,355.8662)"><path
             d="m 0,0 -0.199,0.02 c -163.32,14.4 -326.637,14.4 -489.955,0 l -0.2,-0.03 c 1.389,21.06 3.229,42.11 5.519,63.169 2.17,20 18.19,35.68 38.23,37.26 134.289,10.58 268.567,10.58 402.856,0 20.04,-1.58 36.06,-17.26 38.229,-37.26 C -3.229,42.109 -1.39,21.05 0,0"
             style="fill:#617881;fill-opacity:1;fill-rule:nonzero;stroke:none"
             id="path4099" /></g><g
           id="g4101"
           transform="translate(400.6982,460.1152)"><path
             d="m 0,0 c 18.91,-1.06 37.82,-2.34 56.729,-3.83 20.041,-1.58 36.06,-17.26 38.23,-37.25 11.79,-108.689 11.79,-217.378 0,-326.066 -2.17,-19.99 -18.189,-35.67 -38.23,-37.25 -134.288,-10.59 -268.567,-10.59 -402.855,0 -20.04,1.58 -36.06,17.26 -38.229,37.25 -11.791,108.688 -11.791,217.377 0,326.066 2.169,19.99 18.189,35.67 38.229,37.25 105.648,8.32 211.288,10.1 316.927,5.32"
             style="fill:none;stroke:#000000;stroke-width:15;stroke-linecap:round;stroke-linejoin:round;stroke-miterlimit:10;stroke-dasharray:none;stroke-opacity:1"
             id="path4103" /></g><g
           id="g4105"
           transform="translate(94.2393,411.1206)"><path
             d="m 0,0 c 0,12.955 -10.502,23.457 -23.457,23.457 -12.955,0 -23.457,-10.502 -23.457,-23.457 0,-12.955 10.502,-23.457 23.457,-23.457 C -10.502,-23.457 0,-12.955 0,0"
             style="fill:#da4a54;fill-opacity:1;fill-rule:nonzero;stroke:none"
             id="path4107" /></g><g
           id="g4109"
           transform="translate(234.9795,411.1206)"><path
             d="m 0,0 c 0,12.955 -10.502,23.457 -23.457,23.457 -12.955,0 -23.457,-10.502 -23.457,-23.457 0,-12.955 10.502,-23.457 23.457,-23.457 C -10.502,-23.457 0,-12.955 0,0"
             style="fill:#80bc93;fill-opacity:1;fill-rule:nonzero;stroke:none"
             id="path4111" /></g><g
           id="g4113"
           transform="translate(164.6094,411.1206)"><path
             d="m 0,0 c 0,12.955 -10.502,23.457 -23.457,23.457 -12.955,0 -23.457,-10.502 -23.457,-23.457 0,-12.955 10.502,-23.457 23.457,-23.457 C -10.502,-23.457 0,-12.955 0,0"
             style="fill:#f4dd45;fill-opacity:1;fill-rule:nonzero;stroke:none"
             id="path4115" /></g><g
           id="g4117"
           transform="translate(94.2393,411.1206)"><path
             d="m 0,0 c 0,12.955 -10.502,23.457 -23.457,23.457 -12.955,0 -23.457,-10.502 -23.457,-23.457 0,-12.955 10.502,-23.457 23.457,-23.457 C -10.502,-23.457 0,-12.955 0,0 Z"
             style="fill:none;stroke:#000000;stroke-width:15;stroke-linecap:round;stroke-linejoin:round;stroke-miterlimit:10;stroke-dasharray:none;stroke-opacity:1"
             id="path4119" /></g><g
           id="g4121"
           transform="translate(234.9795,411.1206)"><path
             d="m 0,0 c 0,12.955 -10.502,23.457 -23.457,23.457 -12.955,0 -23.457,-10.502 -23.457,-23.457 0,-12.955 10.502,-23.457 23.457,-23.457 C -10.502,-23.457 0,-12.955 0,0 Z"
             style="fill:none;stroke:#000000;stroke-width:15;stroke-linecap:round;stroke-linejoin:round;stroke-miterlimit:10;stroke-dasharray:none;stroke-opacity:1"
             id="path4123" /></g><g
           id="g4125"
           transform="translate(164.6094,411.1206)"><path
             d="m 0,0 c 0,12.955 -10.502,23.457 -23.457,23.457 -12.955,0 -23.457,-10.502 -23.457,-23.457 0,-12.955 10.502,-23.457 23.457,-23.457 C -10.502,-23.457 0,-12.955 0,0 Z"
             style="fill:none;stroke:#000000;stroke-width:15;stroke-linecap:round;stroke-linejoin:round;stroke-miterlimit:10;stroke-dasharray:none;stroke-opacity:1"
             id="path4127" /></g><g
           id="g4129"
           transform="translate(434.9082,121.1655)"><path
             d="m 0,0 v -10.76 c 0,-8.78 -7.12,-15.9 -15.91,-15.9 h -325.996 c -8.79,0 -15.91,7.12 -15.91,15.9 V 0 c 0,8.78 7.12,15.9 15.91,15.9 H -15.91 C -7.12,15.9 0,8.78 0,0"
             style="fill:#617881;fill-opacity:1;fill-rule:nonzero;stroke:none"
             id="path4131" /></g><g
           id="g4133"
           transform="translate(173.4111,137.0654)"><path
             d="m 0,0 v -42.56 h -80.409 c -8.79,0 -15.91,7.12 -15.91,15.9 v 10.76 c 0,8.78 7.12,15.9 15.91,15.9 z"
             style="fill:#dfeaef;fill-opacity:1;fill-rule:nonzero;stroke:none"
             id="path4135" /></g><g
           id="g4137"
           transform="translate(419.0029,94.501)"><path
             d="m 0,0 h -326.006 c -8.783,0 -15.902,7.12 -15.902,15.902 v 10.761 c 0,8.782 7.119,15.902 15.902,15.902 H 0 c 8.783,0 15.902,-7.12 15.902,-15.902 V 15.902 C 15.902,7.12 8.783,0 0,0 Z"
             style="fill:none;stroke:#000000;stroke-width:15;stroke-linecap:round;stroke-linejoin:round;stroke-miterlimit:10;stroke-dasharray:none;stroke-opacity:1"
             id="path4139" /></g><path
           d="m 185.29,94.501 h -22.889 v 42.565 h 22.889 z"
           style="fill:#f4dd45;fill-opacity:1;fill-rule:nonzero;stroke:#000000;stroke-width:15;stroke-linecap:round;stroke-linejoin:round;stroke-miterlimit:10;stroke-dasharray:none;stroke-opacity:1"
           id="path4141" /><g
           id="g4143"
           transform="translate(11.0273,355.8862)"><path
             d="M 0,0 C 163.317,14.4 326.646,14.4 489.964,0"
             style="fill:none;stroke:#000000;stroke-width:15;stroke-linecap:round;stroke-linejoin:round;stroke-miterlimit:10;stroke-dasharray:none;stroke-opacity:1"
             id="path4145" /></g><g
           id="g4147"
           transform="translate(311.0605,264.6807)"><path
             d="m 0,0 -66.415,38.345 c -16.753,9.673 -37.694,-2.418 -37.694,-21.763 v -76.69 c 0,-19.345 20.941,-31.435 37.694,-21.763 L 0,-43.526 C 16.754,-33.854 16.754,-9.672 0,0"
             style="fill:#ffffff;fill-opacity:1;fill-rule:nonzero;stroke:none"
             id="path4149" /></g><g
           id="g4151"
           transform="translate(211.4004,190.2378)"><path
             d="m 0,0 c 7.05,-10.1 21.22,-14.37 33.25,-7.43 l 66.409,38.35 c 16.76,9.67 16.76,33.85 0,43.519 l -66.409,38.35 c -16.76,9.67 -37.7,-2.42 -37.7,-21.76 V 29.33"
             style="fill:none;stroke:#000000;stroke-width:15;stroke-linecap:round;stroke-linejoin:round;stroke-miterlimit:10;stroke-dasharray:none;stroke-opacity:1"
             id="path4153" /></g></g></g></g></svg>
