<svg width="1200" height="800" viewBox="0 0 1200 800" fill="none" xmlns="http://www.w3.org/2000/svg">
<path d="M326.097 353.875C323.903 345.642 317.405 339.15 309.149 336.928C294.21 332.933 234.276 332.933 234.276 332.933C234.276 332.933 174.372 332.933 159.404 336.928C151.17 339.121 144.679 345.619 142.456 353.875C138.461 368.814 138.461 400 138.461 400C138.461 400 138.461 431.185 142.456 446.124C144.649 454.358 151.148 460.849 159.404 463.072C174.372 467.067 234.276 467.067 234.276 467.067C234.276 467.067 294.21 467.067 309.149 463.072C317.383 460.878 323.874 454.38 326.097 446.124C330.092 431.185 330.092 400 330.092 400C330.092 400 330.092 368.814 326.097 353.875Z" fill="#FF0000"/>
<path d="M215.129 371.252V428.749L264.916 400L215.129 371.252Z" fill="white"/>
<path d="M416.609 454.964C412.828 452.401 410.118 448.443 408.53 443.045C406.942 437.647 406.123 430.484 406.123 421.519V409.327C406.123 400.273 407.038 393.014 408.87 387.527C410.701 382.04 413.566 378.045 417.436 375.549C421.305 373.046 426.401 371.768 432.707 371.768C438.925 371.768 443.895 373.046 447.646 375.608C451.398 378.171 454.137 382.166 455.88 387.586C457.615 393.014 458.472 400.266 458.472 409.29V421.482C458.472 430.447 457.615 437.639 455.939 443.067C454.263 448.495 451.516 452.49 447.705 454.986C443.924 457.489 438.77 458.767 432.279 458.767C425.633 458.804 420.39 457.526 416.609 454.964ZM437.854 441.797C438.888 439.05 439.442 434.575 439.442 428.386V402.2C439.442 396.167 438.925 391.773 437.854 388.967C436.82 386.191 434.959 384.788 432.308 384.788C429.746 384.788 427.951 386.191 426.881 388.967C425.847 391.744 425.293 396.16 425.293 402.2V428.386C425.293 434.604 425.78 439.087 426.785 441.797C427.789 444.544 429.62 445.91 432.271 445.91C434.959 445.91 436.791 444.536 437.854 441.797ZM707.651 421.733V425.972C707.651 431.37 707.806 435.394 708.139 438.104C708.441 440.785 709.113 442.772 710.118 443.99C711.122 445.208 712.68 445.851 714.785 445.851C717.62 445.851 719.57 444.751 720.604 442.557C721.638 440.364 722.221 436.701 722.31 431.584L738.622 432.529C738.711 433.26 738.748 434.264 738.748 435.549C738.748 443.325 736.614 449.115 732.375 452.955C728.136 456.795 722.132 458.715 714.356 458.715C705.03 458.715 698.502 455.791 694.758 449.935C691.006 444.079 689.145 435.055 689.145 422.804V408.138C689.145 395.517 691.095 386.338 694.964 380.519C698.834 374.73 705.48 371.828 714.903 371.828C721.394 371.828 726.364 373.016 729.842 375.394C733.32 377.772 735.757 381.464 737.19 386.493C738.593 391.522 739.324 398.471 739.324 407.318V421.711H707.651V421.733ZM710.059 386.375C709.113 387.564 708.471 389.514 708.139 392.194C707.806 394.875 707.651 398.996 707.651 404.453V410.486H721.49V404.453C721.49 399.055 721.305 394.971 720.943 392.194C720.574 389.418 719.91 387.439 718.964 386.309C718.019 385.179 716.528 384.603 714.512 384.603C712.496 384.573 711.004 385.186 710.059 386.375ZM370.573 420.152L349.047 342.444H367.826L375.358 377.654C377.278 386.346 378.681 393.723 379.597 399.845H380.143C380.786 395.458 382.189 388.111 384.382 377.772L392.188 342.407H410.967L389.197 420.145V457.43H370.573V420.152ZM519.528 373.415V457.4H504.744L503.097 447.128H502.699C498.674 454.904 492.641 458.774 484.621 458.774C479.046 458.774 474.925 456.943 472.274 453.287C469.623 449.632 468.308 443.931 468.308 436.155V373.415H487.206V435.084C487.206 438.836 487.604 441.516 488.424 443.104C489.244 444.692 490.617 445.511 492.537 445.511C494.184 445.511 495.772 445.024 497.263 444.02C498.755 443.015 499.885 441.73 500.616 440.18V373.415H519.528ZM616.532 373.415V457.4H601.748L600.102 447.128H599.703C595.678 454.904 589.645 458.774 581.625 458.774C576.05 458.774 571.929 456.943 569.278 453.287C566.627 449.632 565.313 443.931 565.313 436.155V373.415H584.21V435.084C584.21 438.836 584.609 441.516 585.428 443.104C586.248 444.692 587.622 445.511 589.542 445.511C591.188 445.511 592.776 445.024 594.268 444.02C595.759 443.015 596.889 441.73 597.62 440.18V373.415H616.532Z" fill="white"/>
<path d="M570.927 357.657H552.148V457.408H533.642V357.657H514.863V342.444H570.898V357.657H570.927ZM679.119 386.863C677.96 381.561 676.128 377.721 673.573 375.343C671.011 372.965 667.503 371.776 663.028 371.776C659.55 371.776 656.323 372.751 653.303 374.73C650.282 376.679 647.971 379.271 646.324 382.476H646.169V338.213H627.936V457.438H643.548L645.468 449.484H645.866C647.329 452.32 649.522 454.543 652.453 456.189C655.378 457.836 658.612 458.656 662.179 458.656C668.581 458.656 673.278 455.702 676.291 449.817C679.311 443.931 680.803 434.73 680.803 422.198V408.906C680.825 399.513 680.249 392.165 679.119 386.863ZM661.773 421.127C661.773 427.257 661.529 432.042 661.012 435.52C660.525 438.998 659.668 441.465 658.479 442.927C657.29 444.389 655.703 445.12 653.694 445.12C652.136 445.12 650.703 444.751 649.367 444.02C648.052 443.289 646.959 442.188 646.132 440.726V393.014C646.775 390.725 647.868 388.871 649.426 387.402C650.984 385.94 652.66 385.209 654.484 385.209C656.404 385.209 657.896 385.969 658.937 387.461C659.971 388.953 660.702 391.515 661.13 395.052C661.529 398.619 661.743 403.677 661.743 410.265V421.12L661.773 421.127ZM764.7 458.656H781.47V364.273L799.961 458.656H815.439L834.787 362.124V458.774H851.129V342.444H824.471L807.914 434.361L790.501 342.444H764.7V458.656ZM900.577 458.774H913.906V373.415H895.843V440.815C892.83 445.977 882.085 450.274 882.085 439.958V373.423H864.023V442.543C864.023 457.164 883.806 470.065 897.564 448.133L900.577 458.774ZM983.565 373.415H1000.34V458.774H983.565V373.415ZM992.382 363.417C986.585 363.417 981.844 358.676 981.844 352.879V350.302C981.844 344.505 986.585 339.764 992.382 339.764C998.179 339.764 1002.92 344.505 1002.92 350.302V352.879C1002.91 358.676 998.179 363.417 992.382 363.417ZM956.478 400.613H971.1C971.528 393.516 971.956 372.02 949.167 372.02C930.248 372.02 925.086 384.057 925.086 394.809C925.086 405.561 930.536 413.152 946.014 425.196C959.203 432.079 959.772 447.845 948.879 447.845C943.717 447.845 940.564 444.404 940.564 439.53V431.791H925.086V440.674C925.086 448.413 930.248 460.17 948.303 460.17C966.366 460.17 972.673 450.134 972.673 434.656C972.673 419.178 939.996 403.98 939.996 393.376C939.996 381.051 956.264 382.41 956.264 391.367L956.478 400.613ZM1031.15 393.657C1029.43 413.152 1030.86 428.054 1031.44 437.514C1032.22 450.393 1045.77 450.415 1045.77 437.226V427.766H1061.54C1061.54 444.965 1055.52 459.01 1038.6 459.01C1018.82 459.01 1013.09 444.965 1013.09 430.055V405.118C1013.09 385.054 1021.69 371.577 1038.03 371.577C1059.81 371.577 1060.39 387.055 1060.39 394.225V403.685L1045.77 404.829V393.361C1045.77 385.342 1035.74 378.178 1031.15 393.657Z" fill="white"/>
</svg>
